#N canvas 528 282 837 462 10;
#X obj 81 168 pix_image;
#X obj 242 266 pix_data;
#X obj 108 249 pix_texture;
#X msg 209 116 open paleta.png;
#X obj 22 105 gemhead;
#X obj 26 385 gemwin;
#X msg 34 332 create \, 1;
#X msg 44 358 0 \, destroy;
#X obj 108 278 square 4;
#X floatatom 433 346 9 0 0 1 X-position - -, f 9;
#X floatatom 452 364 8 0 0 1 Y-position - -, f 8;
#X obj 413 132 gemmouse 1 1;
#X obj 339 310 tgl 15 1 empty empty empty 17 7 0 10 -262144 -1 -1 1
1;
#X floatatom 176 281 5 0 0 0 - - -, f 5;
#X floatatom 340 371 5 0 0 0 - - -, f 5;
#X obj 233 379 unpack 0 0 0;
#X floatatom 338 402 5 0 0 0 - - -, f 5;
#X floatatom 284 402 5 0 0 0 - - -, f 5;
#X floatatom 233 402 5 0 0 0 - - -, f 5;
#X text 244 362 color-list;
#X obj 318 177 sel 1;
#X obj 288 214 bng 15 250 50 0 empty empty empty 17 7 0 10 -262144
-1 -1;
#X floatatom 445 258 9 0 0 1 X-position - -, f 9;
#X floatatom 447 235 8 0 0 1 Y-position - -, f 8;
#X obj 423 189 * -1;
#X obj 428 211 + 1;
#N canvas 608 392 498 353 segue_mouse 0;
#X obj 112 29 inlet;
#X obj 168 74 * 8;
#X obj 168 97 - 4;
#X obj 168 31 inlet;
#X obj 112 189 translateXYZ;
#X obj 214 139 - 4;
#X obj 214 33 inlet;
#X obj 214 116 * 8;
#X msg 214 57 1 \$1;
#X obj 214 81 -;
#X obj 112 129 gemhead 55;
#X obj 112 217 color;
#X obj 287 134 inlet;
#X obj 111 242 circle 0.25;
#X connect 0 0 10 0;
#X connect 1 0 2 0;
#X connect 2 0 4 1;
#X connect 3 0 1 0;
#X connect 4 0 11 0;
#X connect 5 0 4 2;
#X connect 6 0 8 0;
#X connect 7 0 5 0;
#X connect 8 0 9 0;
#X connect 9 0 7 0;
#X connect 10 0 4 0;
#X connect 11 0 13 0;
#X connect 12 0 11 1;
#X restore 424 403 pd segue_mouse;
#X text 211 200 mouse clique;
#X text 219 213 pega a cor;
#X text 453 196 padrao da matriz pix_data;
#X text 570 350 padrao do gemmouse;
#X obj 109 80 openpanel;
#X obj 110 57 bng 15 250 50 0 empty empty empty 17 7 0 10 -262144 -1
-1;
#X msg 103 104 open \$1;
#X obj 233 427 s red;
#X obj 275 428 s green;
#X obj 331 428 s blue;
#X obj 204 81 loadbang;
#X text 112 35 abre novo arquivo;
#X connect 0 0 2 0;
#X connect 0 0 1 1;
#X connect 1 1 15 0;
#X connect 1 1 26 3;
#X connect 1 2 14 0;
#X connect 2 0 8 0;
#X connect 3 0 0 0;
#X connect 4 0 0 0;
#X connect 6 0 5 0;
#X connect 7 0 5 0;
#X connect 9 0 26 1;
#X connect 10 0 26 2;
#X connect 11 0 9 0;
#X connect 11 0 22 0;
#X connect 11 1 10 0;
#X connect 11 1 24 0;
#X connect 11 2 20 0;
#X connect 12 0 26 0;
#X connect 13 0 8 1;
#X connect 15 0 18 0;
#X connect 15 1 17 0;
#X connect 15 2 16 0;
#X connect 16 0 36 0;
#X connect 17 0 35 0;
#X connect 18 0 34 0;
#X connect 20 0 21 0;
#X connect 21 0 1 0;
#X connect 22 0 1 2;
#X connect 23 0 1 3;
#X connect 24 0 25 0;
#X connect 25 0 23 0;
#X connect 31 0 33 0;
#X connect 32 0 31 0;
#X connect 33 0 0 0;
#X connect 37 0 3 0;
